<svg width="32" height="32" viewBox="0 0 32 32" fill="none" xmlns="http://www.w3.org/2000/svg">
<g id="widgets">
<mask id="mask0_255_3359" style="mask-type:alpha" maskUnits="userSpaceOnUse" x="0" y="0" width="32" height="32">
<rect id="Bounding box" width="32" height="32" fill="#D9D9D9"/>
</mask>
<g mask="url(#mask0_255_3359)">
<path id="widgets_2" d="M20.9846 15.1949L16.8564 11.0667C16.7402 10.9504 16.6585 10.8305 16.6115 10.7068C16.5645 10.5832 16.541 10.4507 16.541 10.3094C16.541 10.1681 16.5645 10.0367 16.6115 9.91536C16.6585 9.794 16.7402 9.6752 16.8564 9.55896L20.9846 5.43076C21.1009 5.31451 21.2208 5.23289 21.3444 5.18589C21.4681 5.13887 21.6006 5.11536 21.7419 5.11536C21.8832 5.11536 22.0145 5.13887 22.1359 5.18589C22.2573 5.23289 22.3761 5.31451 22.4923 5.43076L26.6205 9.55896C26.7368 9.6752 26.8184 9.79515 26.8654 9.91879C26.9124 10.0424 26.9359 10.1749 26.9359 10.3162C26.9359 10.4575 26.9124 10.5889 26.8654 10.7103C26.8184 10.8316 26.7368 10.9504 26.6205 11.0667L22.4923 15.1949C22.3761 15.3111 22.2561 15.3927 22.1325 15.4398C22.0088 15.4868 21.8764 15.5103 21.735 15.5103C21.5937 15.5103 21.4624 15.4868 21.341 15.4398C21.2197 15.3927 21.1009 15.3111 20.9846 15.1949ZM6.15384 13.0769V7.23076C6.15384 6.92562 6.25704 6.66985 6.46344 6.46342C6.66986 6.25702 6.92564 6.15382 7.23077 6.15382H13.0769C13.3821 6.15382 13.6378 6.25702 13.8442 6.46342C14.0506 6.66985 14.1538 6.92562 14.1538 7.23076V13.0769C14.1538 13.3821 14.0506 13.6378 13.8442 13.8442C13.6378 14.0506 13.3821 14.1538 13.0769 14.1538H7.23077C6.92564 14.1538 6.66986 14.0506 6.46344 13.8442C6.25704 13.6378 6.15384 13.3821 6.15384 13.0769ZM17.8462 24.7692V18.9231C17.8462 18.6179 17.9494 18.3622 18.1558 18.1558C18.3622 17.9494 18.6179 17.8462 18.9231 17.8462H24.7692C25.0744 17.8462 25.3302 17.9494 25.5366 18.1558C25.743 18.3622 25.8462 18.6179 25.8462 18.9231V24.7692C25.8462 25.0744 25.743 25.3301 25.5366 25.5366C25.3302 25.743 25.0744 25.8462 24.7692 25.8462H18.9231C18.6179 25.8462 18.3622 25.743 18.1558 25.5366C17.9494 25.3301 17.8462 25.0744 17.8462 24.7692ZM6.15384 24.7692V18.9231C6.15384 18.6179 6.25704 18.3622 6.46344 18.1558C6.66986 17.9494 6.92564 17.8462 7.23077 17.8462H13.0769C13.3821 17.8462 13.6378 17.9494 13.8442 18.1558C14.0506 18.3622 14.1538 18.6179 14.1538 18.9231V24.7692C14.1538 25.0744 14.0506 25.3301 13.8442 25.5366C13.6378 25.743 13.3821 25.8462 13.0769 25.8462H7.23077C6.92564 25.8462 6.66986 25.743 6.46344 25.5366C6.25704 25.3301 6.15384 25.0744 6.15384 24.7692Z" fill="white"/>
</g>
</g>
</svg>
